<svg xmlns="http://www.w3.org/2000/svg" width="24" height="24" fill="none" viewBox="0 0 24 24">
  <path fill="#0E121B" d="M12.555 5.538c1.083 0 2.44-.732 3.25-1.708.732-.885 1.266-2.121 1.266-3.357 0-.168-.015-.336-.046-.473-1.205.046-2.655.809-3.524 1.83-.687.779-1.313 2-1.313 3.25 0 .184.031.367.046.428.077.015.199.03.32.03ZM8.74 24c1.48 0 2.136-.992 3.982-.992 1.877 0 2.29.962 3.937.962 1.617 0 2.7-1.496 3.723-2.96 1.144-1.679 1.617-3.327 1.648-3.403-.107-.03-3.204-1.297-3.204-4.852 0-3.082 2.44-4.47 2.578-4.577-1.617-2.32-4.074-2.38-4.745-2.38-1.816 0-3.296 1.098-4.226 1.098-1.007 0-2.335-1.037-3.906-1.037-2.99 0-6.027 2.472-6.027 7.14 0 2.9 1.129 5.966 2.517 7.95C6.207 22.627 7.245 24 8.74 24Z"/>
</svg>
