<svg xmlns="http://www.w3.org/2000/svg" width="24" height="24" fill="none" viewBox="0 0 24 24">
  <path fill="#EA4335" d="M11.81 11.506 2.585 21.17l.001.007A2.486 2.486 0 0 0 4.994 23a2.5 2.5 0 0 0 1.263-.339l.03-.017 10.382-5.915-4.86-5.223Z"/>
  <path fill="#FBBC04" d="m21.139 9.86-.01-.005-4.482-2.566-5.05 4.437 5.07 5.004 4.457-2.542a2.457 2.457 0 0 0 1.312-2.168c0-.932-.523-1.741-1.297-2.16Z"/>
  <path fill="#4285F4" d="M2.585 2.827a2.377 2.377 0 0 0-.085.633v17.08c.009.245.029.43.085.632l9.54-9.418-9.54-8.927Z"/>
  <path fill="#34A853" d="m11.878 12 4.772-4.71L6.281 1.35A2.521 2.521 0 0 0 4.994 1a2.488 2.488 0 0 0-2.407 1.825l-.001.003L11.878 12Z"/>
</svg>
