<svg width="32" height="32" viewBox="0 0 32 32" fill="none" xmlns="http://www.w3.org/2000/svg">
<g id="svgexport-20 (1) 1" clip-path="url(#clip0_35_3449)">
<path id="Vector" d="M2.64682 17.8522C3.68147 17.8522 4.52021 17.0135 4.52021 15.9789C4.52021 14.9442 3.68147 14.1055 2.64682 14.1055C1.61218 14.1055 0.773438 14.9442 0.773438 15.9789C0.773438 17.0135 1.61218 17.8522 2.64682 17.8522Z" fill="white"/>
<path id="Vector_2" d="M7.18198 17.8781C8.21662 17.8781 9.05537 17.0394 9.05537 16.0047C9.05537 14.9701 8.21662 14.1313 7.18198 14.1313C6.14734 14.1313 5.30859 14.9701 5.30859 16.0047C5.30859 17.0394 6.14734 17.8781 7.18198 17.8781Z" fill="white"/>
<path id="Vector_3" d="M11.6664 17.8576C12.701 17.8576 13.5397 17.0189 13.5397 15.9842C13.5397 14.9496 12.701 14.1108 11.6664 14.1108C10.6317 14.1108 9.79297 14.9496 9.79297 15.9842C9.79297 17.0189 10.6317 17.8576 11.6664 17.8576Z" fill="white"/>
<path id="Vector_4" d="M16.2035 17.8913C17.2381 17.8913 18.0769 17.0526 18.0769 16.0179C18.0769 14.9833 17.2381 14.1445 16.2035 14.1445C15.1688 14.1445 14.3301 14.9833 14.3301 16.0179C14.3301 17.0526 15.1688 17.8913 16.2035 17.8913Z" fill="white"/>
<path id="Vector_5" d="M20.7289 17.9089C21.7635 17.9089 22.6022 17.0701 22.6022 16.0355C22.6022 15.0009 21.7635 14.1621 20.7289 14.1621C19.6942 14.1621 18.8555 15.0009 18.8555 16.0355C18.8555 17.0701 19.6942 17.9089 20.7289 17.9089Z" fill="white"/>
<path id="Vector_6" d="M25.2249 17.8728C26.2596 17.8728 27.0983 17.034 27.0983 15.9994C27.0983 14.9647 26.2596 14.126 25.2249 14.126C24.1903 14.126 23.3516 14.9647 23.3516 15.9994C23.3516 17.034 24.1903 17.8728 25.2249 17.8728Z" fill="white"/>
<path id="Vector_7" d="M29.7914 17.883C30.826 17.883 31.6647 17.0443 31.6647 16.0096C31.6647 14.975 30.826 14.1362 29.7914 14.1362C28.7567 14.1362 27.918 14.975 27.918 16.0096C27.918 17.0443 28.7567 17.883 29.7914 17.883Z" fill="white"/>
<path id="Vector_8" d="M25.2484 22.2307C26.283 22.2307 27.1218 21.3919 27.1218 20.3573C27.1218 19.3226 26.283 18.4839 25.2484 18.4839C24.2137 18.4839 23.375 19.3226 23.375 20.3573C23.375 21.3919 24.2137 22.2307 25.2484 22.2307Z" fill="white"/>
<path id="Vector_9" d="M20.7113 26.7155C21.7459 26.7155 22.5847 25.8768 22.5847 24.8421C22.5847 23.8075 21.7459 22.9688 20.7113 22.9688C19.6766 22.9688 18.8379 23.8075 18.8379 24.8421C18.8379 25.8768 19.6766 26.7155 20.7113 26.7155Z" fill="white"/>
<path id="Vector_10" d="M16.2054 31.3137C17.2401 31.3137 18.0788 30.4749 18.0788 29.4403C18.0788 28.4056 17.2401 27.5669 16.2054 27.5669C15.1708 27.5669 14.332 28.4056 14.332 29.4403C14.332 30.4749 15.1708 31.3137 16.2054 31.3137Z" fill="white"/>
<path id="Vector_11" d="M25.2347 9.75909C26.2694 9.75909 27.1081 10.5978 27.1081 11.6325C27.1081 12.6671 26.2694 13.5059 25.2347 13.5059C24.2001 13.5059 23.3613 12.6671 23.3613 11.6325C23.3613 10.5978 24.2001 9.75909 25.2347 9.75909Z" fill="white"/>
<path id="Vector_12" d="M20.6957 5.28155C21.7303 5.28155 22.569 6.12029 22.569 7.15493C22.569 8.18958 21.7303 9.02832 20.6957 9.02832C19.661 9.02832 18.8223 8.18958 18.8223 7.15493C18.8223 6.12029 19.661 5.28155 20.6957 5.28155Z" fill="white"/>
<path id="Vector_13" d="M16.1996 0.67559C17.2342 0.67559 18.0729 1.51433 18.0729 2.54898C18.0729 3.58362 17.2342 4.42236 16.1996 4.42236C15.1649 4.42236 14.3262 3.58362 14.3262 2.54898C14.3262 1.51433 15.1649 0.67559 16.1996 0.67559Z" fill="white"/>
</g>
<defs>
<clipPath id="clip0_35_3449">
<rect width="32" height="32" fill="white"/>
</clipPath>
</defs>
</svg>
