<svg xmlns="http://www.w3.org/2000/svg" width="313" height="230" fill="none" viewBox="0 0 313 230">
  <path fill="#222530" d="M278.933 122.433h-40.212l28.423-28.423c13.237-13.237 13.237-34.917 0-48.154-13.237-13.237-34.917-13.237-48.154 0l-28.423 28.423V34.067C190.567 15.335 175.232 0 156.5 0s-34.067 15.335-34.067 34.067V74.28L94.01 45.856c-13.237-13.237-34.917-13.237-48.154 0-13.237 13.237-13.237 34.917 0 48.154l28.423 28.423H34.067C15.335 122.433 0 137.768 0 156.5s15.335 34.067 34.067 34.067H74.28L45.856 218.99c-13.237 13.237-13.237 34.917 0 48.154 13.237 13.237 34.917 13.237 48.154 0l28.423-28.423v40.212c0 18.732 15.335 34.067 34.067 34.067s34.067-15.335 34.067-34.067v-40.212l28.423 28.423c13.237 13.237 34.917 13.237 48.154 0 13.237-13.237 13.237-34.917 0-48.154l-28.423-28.423h40.212c18.732 0 34.067-15.335 34.067-34.067s-15.335-34.067-34.067-34.067Z"/>
</svg>
